{"title":"Springfloden S02 E06 - 720p x265 HEVC - SWE (ENG SUBS) [BRSHNKV]","magnet":"magnet:?xt=urn:btih:b2b9a675da396239a54a76d0a6ed792a744b3754&dn=Springfloden+S02+E06+-+720p+x265+HEVC+-+SWE+%28ENG+SUBS%29+%5BBRSHNKV%5D&tr=udp%3A%2F%2Ftracker.leechers-paradise.org%3A6969&tr=udp%3A%2F%2Fzer0day.ch%3A1337&tr=udp%3A%2F%2Fopen.demonii.com%3A1337&tr=udp%3A%2F%2Ftracker.coppersurfer.tk%3A6969&tr=udp%3A%2F%2Fexodus.desync.com%3A6969","uploader":"BRSHNKV","categoryP":"video","categoryS":"hd___tv_shows","size":"448585575","seeders":"0","leechers":"0","description":" <a href=\"https://www.imdb.com/title/tt5194410/?ref_=rvi_tt\" rel=\"nofollow\" target=\"_NEW\">https://www.imdb.com/title/tt5194410/?ref_=rvi_tt</a>\r\n\r\n\r\n*************\r\n\r\n\r\nVideo\r\nID                                       : 1\r\nFormat                                   : HEVC\r\nFormat/Info                              : High Efficiency Video Coding\r\nFormat profile                           : Main 10@L3.1@Main\r\nCodec ID                                 : hvc1\r\nCodec ID/Info                            : High Efficiency Video Coding\r\nDuration                                 : 43mn 34s\r\nBit rate                                 : 1 201 Kbps\r\nWidth                                    : 1 280 pixels\r\nHeight                                   : 720 pixels\r\nDisplay aspect ratio                     : 16:9\r\nFrame rate mode                          : Constant\r\nFrame rate                               : 25.000 fps\r\nColor space                              : YUV\r\nChroma subsampling                       : 4:2:0\r\nBit depth                                : 10 bits\r\nBits/(Pixel*Frame)                       : 0.052\r\nStream size                              : 374 MiB (88%)\r\nWriting library                          : x265 2.6:[Mac OS X][clang 9.1.0][64 bit] 10bit\r\nEncoded date                             : UTC 2018-10-22 21:35:13\r\nTagged date                              : UTC 2018-10-22 21:35:13\r\nColor range                              : Limited\r\nColor primaries                          : BT.709\r\nTransfer characteristics                 : BT.709\r\nMatrix coefficients                      : BT.709\r\n\r\nAudio\r\nID                                       : 2\r\nFormat                                   : AAC\r\nFormat/Info                              : Advanced Audio Codec\r\nFormat profile                           : LC\r\nCodec ID                                 : 40\r\nDuration                                 : 43mn 34s\r\nBit rate mode                            : Variable\r\nBit rate                                 : 165 Kbps\r\nChannel(s)                               : 2 channels\r\nChannel positions                        : Front: L R\r\nSampling rate                            : 48.0 KHz\r\nCompression mode                         : Lossy\r\nStream size                              : 51.3 MiB (12%)\r\nTitle                                    : Stereo / Stereo\r\nLanguage                                 : Swedish\r\nEncoded date                             : UTC 2018-10-22 21:35:13\r\nTagged date                              : UTC 2018-10-22 21:35:13","last_updated":"2018-10-28T12:04:38.739Z","parsed":{"xt":"urn:btih:b2b9a675da396239a54a76d0a6ed792a744b3754","dn":"Springfloden S02 E06 - 720p x265 HEVC - SWE (ENG SUBS) [BRSHNKV]","tr":["udp://exodus.desync.com:6969","udp://open.demonii.com:1337","udp://tracker.coppersurfer.tk:6969","udp://tracker.leechers-paradise.org:6969","udp://zer0day.ch:1337"],"infoHash":"b2b9a675da396239a54a76d0a6ed792a744b3754","infoHashBuffer":{"type":"Buffer","data":[178,185,166,117,218,57,98,57,165,74,118,208,166,237,121,42,116,75,55,84]},"name":"Springfloden S02 E06 - 720p x265 HEVC - SWE (ENG SUBS) [BRSHNKV]","announce":["udp://exodus.desync.com:6969","udp://open.demonii.com:1337","udp://tracker.coppersurfer.tk:6969","udp://tracker.leechers-paradise.org:6969","udp://zer0day.ch:1337"],"urlList":[]}}